<svg width="40" height="40" viewBox="4 4 40 40" xmlns="http://www.w3.org/2000/svg">
  <defs>
    <linearGradient id="royalGradient" x1="0%" y1="0%" x2="100%" y2="0%">
      <stop offset="0%" style="stop-color:#D4AF37;stop-opacity:1" />
      <stop offset="100%" style="stop-color:#1A1A1A;stop-opacity:1" />
    </linearGradient>
  </defs>
  
  <!-- Rounded rectangle background with gradient -->
  <rect x="4" y="4" width="40" height="40" rx="10" ry="10" fill="url(#royalGradient)"/>
  
  <!-- Scales icon (centered in the container) -->
  <g transform="translate(12, 12)">
    <path fill="none" stroke="#FFFFFF" stroke-linecap="round" stroke-linejoin="round" stroke-width="2"
        d="M3 6l3 1m0 0l-3 9a5.002 5.002 0 006.001 0M6 7l3 9M6 7l6-2m6 2l3-1m-3 1l-3 9a5.002 5.002 0 006.001 0M18 7l3 9m-3-9l-6-2m0-2v2m0 16V5m0 16H9m3 0h3">
    </path>
  </g>
</svg>